<svg width="256" height="256" viewBox="0 0 256 256" fill="none" xmlns="http://www.w3.org/2000/svg">
<g clip-path="url(#clip0_3_2)">
<path d="M166.874 47.08C166.874 50.92 165.114 54.76 161.594 58.6C158.394 62.44 154.714 64.36 150.554 64.36C146.714 64.36 144.794 62.44 144.794 58.6C144.794 54.44 146.234 50.44 149.114 46.6C152.314 42.76 156.154 40.84 160.634 40.84C164.794 40.84 166.874 42.92 166.874 47.08ZM188.474 154.12C180.794 164.04 171.994 173.48 162.074 182.44C152.154 191.4 143.034 198.6 134.714 204.04C128.314 208.2 121.754 211.4 115.034 213.64C108.314 215.88 102.234 217 96.7937 217C94.8737 217 92.6337 216.84 90.0737 216.52C87.5138 216.2 85.1138 215.4 82.8738 214.12C80.9538 212.84 79.1938 211.24 77.5938 209.32C76.3137 207.08 75.6737 204.2 75.6737 200.68C75.6737 196.52 77.2737 190.92 80.4738 183.88C83.6737 176.52 87.3537 169 91.5137 161.32C95.9937 153.64 100.314 146.28 104.474 139.24C108.954 132.2 112.474 126.92 115.034 123.4C116.634 120.84 119.354 118.76 123.194 117.16C127.354 115.24 130.074 114.28 131.354 114.28C132.954 114.28 133.754 114.76 133.754 115.72C133.754 116.36 133.434 117.32 132.794 118.6C132.474 119.88 131.994 120.84 131.354 121.48C127.194 127.88 122.874 134.92 118.394 142.6C114.234 150.28 110.394 157.8 106.874 165.16C103.354 172.2 100.474 178.76 98.2338 184.84C96.3138 190.92 95.3538 195.72 95.3538 199.24C95.3538 203.08 96.3138 205.96 98.2338 207.88C100.474 209.48 103.354 210.28 106.874 210.28C113.274 210.28 120.314 208.2 127.994 204.04C135.674 199.56 143.194 194.28 150.554 188.2C158.234 182.12 165.274 175.72 171.674 169C178.074 162.28 183.034 156.52 186.554 151.72C188.154 150.12 188.954 149.8 188.954 150.76C189.274 151.4 189.114 152.52 188.474 154.12Z" fill="white"/>
</g>
<defs>
<clipPath id="clip0_3_2">
<rect width="256" height="256" fill="white"/>
</clipPath>
</defs>
</svg>
